<?xml version="1.0" encoding="UTF-8" standalone="no"?>
<!-- Created with Inkscape (http://www.inkscape.org/) -->

<svg
   xmlns:dc="http://purl.org/dc/elements/1.1/"
   xmlns:cc="http://creativecommons.org/ns#"
   xmlns:rdf="http://www.w3.org/1999/02/22-rdf-syntax-ns#"
   xmlns:svg="http://www.w3.org/2000/svg"
   xmlns="http://www.w3.org/2000/svg"
   xmlns:sodipodi="http://sodipodi.sourceforge.net/DTD/sodipodi-0.dtd"
   xmlns:inkscape="http://www.inkscape.org/namespaces/inkscape"
   width="557.25806"
   height="289.09677"
   id="svg2"
   version="1.1"
   inkscape:version="0.48.4 r9939"
   sodipodi:docname="indistinguishables.svg"
   inkscape:export-filename="/home/yozen/Dropbox/PhD/figures/indistinguishables.png"
   inkscape:export-xdpi="300.01001"
   inkscape:export-ydpi="300.01001">
  <defs
     id="defs4">
    <marker
       inkscape:stockid="Arrow1Lstart"
       orient="auto"
       refY="0.0"
       refX="0.0"
       id="Arrow1Lstart"
       style="overflow:visible">
      <path
         id="path3832"
         d="M 0.0,0.0 L 5.0,-5.0 L -12.5,0.0 L 5.0,5.0 L 0.0,0.0 z "
         style="fill-rule:evenodd;stroke:#000000;stroke-width:1.0pt"
         transform="scale(0.8) translate(12.5,0)" />
    </marker>
  </defs>
  <sodipodi:namedview
     id="base"
     pagecolor="#ffffff"
     bordercolor="#666666"
     borderopacity="1.0"
     inkscape:pageopacity="0.0"
     inkscape:pageshadow="2"
     inkscape:zoom="1.63"
     inkscape:cx="260.5485"
     inkscape:cy="142.95025"
     inkscape:document-units="px"
     inkscape:current-layer="layer1"
     showgrid="false"
     inkscape:window-width="1600"
     inkscape:window-height="829"
     inkscape:window-x="-2"
     inkscape:window-y="-3"
     inkscape:window-maximized="1"
     fit-margin-top="0"
     fit-margin-left="0"
     fit-margin-right="0"
     fit-margin-bottom="0" />
  <metadata
     id="metadata7">
    <rdf:RDF>
      <cc:Work
         rdf:about="">
        <dc:format>image/svg+xml</dc:format>
        <dc:type
           rdf:resource="http://purl.org/dc/dcmitype/StillImage" />
        <dc:title></dc:title>
      </cc:Work>
    </rdf:RDF>
  </metadata>
  <g
     inkscape:label="Layer 1"
     inkscape:groupmode="layer"
     id="layer1"
     transform="translate(-95.774185,-179.78736)">
    <path
       sodipodi:type="arc"
       style="fill:none;stroke:#000000;stroke-width:2;stroke-miterlimit:4;stroke-opacity:1;stroke-dasharray:none"
       id="path2985"
       sodipodi:cx="212.90323"
       sodipodi:cy="320.10413"
       sodipodi:rx="116.12904"
       sodipodi:ry="143.54839"
       d="m 329.03227,320.10413 c 0,79.27958 -51.99274,143.54838 -116.12904,143.54838 -64.1363,0 -116.129045,-64.2688 -116.129045,-143.54838 0,-79.27959 51.992745,-143.54839 116.129045,-143.54839 64.1363,0 116.12904,64.2688 116.12904,143.54839 z"
       transform="translate(0,4.2316199)" />
    <path
       d="m 329.03227,320.10413 c 0,79.27958 -51.99274,143.54838 -116.12904,143.54838 -64.1363,0 -116.129045,-64.2688 -116.129045,-143.54838 0,-79.27959 51.992745,-143.54839 116.129045,-143.54839 64.1363,0 116.12904,64.2688 116.12904,143.54839 z"
       sodipodi:ry="143.54839"
       sodipodi:rx="116.12904"
       sodipodi:cy="320.10413"
       sodipodi:cx="212.90323"
       id="path3755"
       style="fill:none;stroke:#000000;stroke-width:2;stroke-miterlimit:4;stroke-opacity:1;stroke-dasharray:none"
       sodipodi:type="arc"
       transform="matrix(0.60727076,0,0,0.60727076,452.61332,129.94587)" />
    <path
       sodipodi:type="arc"
       style="fill:#ffff00;fill-opacity:0.6;stroke:#000000;stroke-width:2;stroke-miterlimit:4;stroke-opacity:1;stroke-dasharray:none"
       id="path3759"
       sodipodi:cx="155"
       sodipodi:cy="269.36218"
       sodipodi:rx="4"
       sodipodi:ry="4"
       d="m 159,269.36218 a 4,4 0 1 1 -8,0 4,4 0 1 1 8,0 z"
       transform="translate(59.509203,41.717792)" />
    <path
       d="m 159,269.36218 c 0,2.20914 -1.79086,4 -4,4 -2.20914,0 -4,-1.79086 -4,-4 0,-2.20914 1.79086,-4 4,-4 2.20914,0 4,1.79086 4,4 z"
       sodipodi:ry="4"
       sodipodi:rx="4"
       sodipodi:cy="269.36218"
       sodipodi:cx="155"
       id="path3761"
       style="fill:#0000ff;fill-opacity:0.6;stroke:#000000;stroke-width:2;stroke-miterlimit:4;stroke-opacity:1;stroke-dasharray:none"
       sodipodi:type="arc"
       transform="translate(78,-44)" />
    <path
       d="m 159,269.36218 a 4,4 0 1 1 -8,0 4,4 0 1 1 8,0 z"
       sodipodi:ry="4"
       sodipodi:rx="4"
       sodipodi:cy="269.36218"
       sodipodi:cx="155"
       id="path3763"
       style="fill:#000000;fill-opacity:0.6;stroke:#000000;stroke-width:2;stroke-miterlimit:4;stroke-opacity:1;stroke-dasharray:none"
       sodipodi:type="arc"
       transform="translate(69.613497,-14.539877)" />
    <path
       d="m 159,269.36218 a 4,4 0 1 1 -8,0 4,4 0 1 1 8,0 z"
       sodipodi:ry="4"
       sodipodi:rx="4"
       sodipodi:cy="269.36218"
       sodipodi:cx="155"
       id="path3765"
       style="fill:#ff00ff;fill-opacity:0.6;stroke:#000000;stroke-width:2;stroke-miterlimit:4;stroke-opacity:1;stroke-dasharray:none"
       sodipodi:type="arc"
       transform="translate(67.098163,88.815951)" />
    <path
       d="m 159,269.36218 a 4,4 0 1 1 -8,0 4,4 0 1 1 8,0 z"
       sodipodi:ry="4"
       sodipodi:rx="4"
       sodipodi:cy="269.36218"
       sodipodi:cx="155"
       id="path3767"
       style="fill:#000000;fill-opacity:0.6;stroke:#000000;stroke-width:2;stroke-miterlimit:4;stroke-opacity:1;stroke-dasharray:none"
       sodipodi:type="arc"
       transform="translate(95.386503,13.122699)" />
    <path
       d="m 159,269.36218 c 0,2.20914 -1.79086,4 -4,4 -2.20914,0 -4,-1.79086 -4,-4 0,-2.20914 1.79086,-4 4,-4 2.20914,0 4,1.79086 4,4 z"
       sodipodi:ry="4"
       sodipodi:rx="4"
       sodipodi:cy="269.36218"
       sodipodi:cx="155"
       id="path3771"
       style="fill:#000000;fill-opacity:0.6;stroke:#000000;stroke-width:2;stroke-miterlimit:4;stroke-opacity:1;stroke-dasharray:none"
       sodipodi:type="arc"
       transform="translate(38,149)" />
    <path
       d="m 159,269.36218 c 0,2.20914 -1.79086,4 -4,4 -2.20914,0 -4,-1.79086 -4,-4 0,-2.20914 1.79086,-4 4,-4 2.20914,0 4,1.79086 4,4 z"
       sodipodi:ry="4"
       sodipodi:rx="4"
       sodipodi:cy="269.36218"
       sodipodi:cx="155"
       id="path3773"
       style="fill:#000000;fill-opacity:0.6;stroke:#000000;stroke-width:2;stroke-miterlimit:4;stroke-opacity:1;stroke-dasharray:none"
       sodipodi:type="arc"
       transform="translate(89,127)" />
    <path
       d="m 159,269.36218 a 4,4 0 1 1 -8,0 4,4 0 1 1 8,0 z"
       sodipodi:ry="4"
       sodipodi:rx="4"
       sodipodi:cy="269.36218"
       sodipodi:cx="155"
       id="path3775"
       style="fill:#ff6600;fill-opacity:0.6;stroke:#000000;stroke-width:2;stroke-miterlimit:4;stroke-opacity:1;stroke-dasharray:none"
       sodipodi:type="arc"
       transform="translate(90.331288,159.18405)" />
    <path
       transform="translate(418.48467,32.932516)"
       sodipodi:type="arc"
       style="fill:#ffff00;fill-opacity:0.6;stroke:#000000;stroke-width:2;stroke-miterlimit:4;stroke-opacity:1;stroke-dasharray:none"
       id="path3759-0"
       sodipodi:cx="155"
       sodipodi:cy="269.36218"
       sodipodi:rx="4"
       sodipodi:ry="4"
       d="m 159,269.36218 a 4,4 0 1 1 -8,0 4,4 0 1 1 8,0 z" />
    <path
       d="m 159,269.36218 a 4,4 0 1 1 -8,0 4,4 0 1 1 8,0 z"
       sodipodi:ry="4"
       sodipodi:rx="4"
       sodipodi:cy="269.36218"
       sodipodi:cx="155"
       id="path3797"
       style="fill:#ff00ff;fill-opacity:0.6;stroke:#000000;stroke-width:2;stroke-miterlimit:4;stroke-opacity:1;stroke-dasharray:none"
       sodipodi:type="arc"
       transform="translate(407.11042,72.337423)" />
    <path
       d="m 159,269.36218 c 0,2.20914 -1.79086,4 -4,4 -2.20914,0 -4,-1.79086 -4,-4 0,-2.20914 1.79086,-4 4,-4 2.20914,0 4,1.79086 4,4 z"
       sodipodi:ry="4"
       sodipodi:rx="4"
       sodipodi:cy="269.36218"
       sodipodi:cx="155"
       id="path3820"
       style="fill:#0000ff;fill-opacity:0.6;stroke:#000000;stroke-width:2;stroke-miterlimit:4;stroke-opacity:1;stroke-dasharray:none"
       sodipodi:type="arc"
       transform="translate(429,-3)" />
    <path
       d="m 159,269.36218 c 0,2.20914 -1.79086,4 -4,4 -2.20914,0 -4,-1.79086 -4,-4 0,-2.20914 1.79086,-4 4,-4 2.20914,0 4,1.79086 4,4 z"
       sodipodi:ry="4"
       sodipodi:rx="4"
       sodipodi:cy="269.36218"
       sodipodi:cx="155"
       id="path3822"
       style="fill:#ff6600;fill-opacity:0.6;stroke:#000000;stroke-width:2;stroke-miterlimit:4;stroke-opacity:1;stroke-dasharray:none"
       sodipodi:type="arc"
       transform="translate(401,107)" />
    <path
       style="fill:none;stroke:#000000;stroke-width:1px;stroke-linecap:butt;stroke-linejoin:miter;stroke-opacity:1"
       d="M 578.52761,265.24562 236.19632,225.36832"
       id="path4678"
       inkscape:connector-curvature="0" />
    <path
       style="fill:none;stroke:#000000;stroke-width:1px;stroke-linecap:butt;stroke-linejoin:miter;stroke-opacity:1"
       d="M 579.1411,268.9266 228.22086,256.04316"
       id="path4680"
       inkscape:connector-curvature="0"
       sodipodi:nodetypes="cc" />
    <path
       style="fill:none;stroke:#000000;stroke-width:1px;stroke-linecap:butt;stroke-linejoin:miter;stroke-opacity:1"
       d="M 254.60122,283.65052 584.66258,268.9266"
       id="path4682"
       inkscape:connector-curvature="0"
       sodipodi:nodetypes="cc" />
    <path
       transform="translate(466.47239,98.337423)"
       sodipodi:type="arc"
       style="fill:#000000;fill-opacity:0.6;stroke:#000000;stroke-width:2;stroke-miterlimit:4;stroke-opacity:1;stroke-dasharray:none"
       id="path3759-03"
       sodipodi:cx="155"
       sodipodi:cy="269.36218"
       sodipodi:rx="4"
       sodipodi:ry="4"
       d="m 159,269.36218 c 0,2.20914 -1.79086,4 -4,4 -2.20914,0 -4,-1.79086 -4,-4 0,-2.20914 1.79086,-4 4,-4 2.20914,0 4,1.79086 4,4 z" />
    <path
       transform="translate(442.54601,78.092025)"
       sodipodi:type="arc"
       style="fill:#000000;fill-opacity:0.6;stroke:#000000;stroke-width:2;stroke-miterlimit:4;stroke-opacity:1;stroke-dasharray:none"
       id="path3759-2"
       sodipodi:cx="155"
       sodipodi:cy="269.36218"
       sodipodi:rx="4"
       sodipodi:ry="4"
       d="m 159,269.36218 a 4,4 0 1 1 -8,0 4,4 0 1 1 8,0 z" />
    <path
       style="fill:none;stroke:#000000;stroke-width:1px;stroke-linecap:butt;stroke-linejoin:miter;stroke-opacity:1"
       d="M 552.76074,378.74255 250.30675,427.2088"
       id="path4709"
       inkscape:connector-curvature="0"
       sodipodi:nodetypes="cc" />
    <path
       style="fill:none;stroke:#000000;stroke-width:1px;stroke-linecap:butt;stroke-linejoin:miter;stroke-opacity:1"
       d="M 455.82822,198.29923 152.14724,216.09064"
       id="path4732"
       inkscape:connector-curvature="0"
       transform="translate(95.774185,179.78736)" />
    <path
       style="fill:none;stroke:#000000;stroke-width:1;stroke-linecap:butt;stroke-linejoin:miter;stroke-opacity:1;stroke-miterlimit:4;stroke-dasharray:2,1;stroke-dashoffset:0"
       d="m 122.08589,130.81456 352.14724,-9.20245"
       id="path3005"
       inkscape:connector-curvature="0"
       transform="translate(95.774185,179.78736)" />
    <path
       style="fill:none;stroke:#000000;stroke-width:1;stroke-linecap:butt;stroke-linejoin:miter;stroke-opacity:1;stroke-miterlimit:4;stroke-dasharray:1,1;stroke-dashoffset:0"
       d="m 121.47239,133.88205 341.1043,27.60736"
       id="path3007"
       inkscape:connector-curvature="0"
       transform="translate(95.774185,179.78736)" />
    <path
       style="fill:none;stroke:#000000;stroke-width:1;stroke-linecap:butt;stroke-linejoin:miter;stroke-opacity:1;stroke-miterlimit:4;stroke-dasharray:3,1;stroke-dashoffset:0"
       d="M 128.83436,176.82683 474.23313,123.4526"
       id="path3009"
       inkscape:connector-curvature="0"
       transform="translate(95.774185,179.78736)" />
    <path
       style="fill:none;stroke:#000000;stroke-width:1;stroke-linecap:butt;stroke-linejoin:miter;stroke-opacity:1;stroke-miterlimit:4;stroke-dasharray:1,1;stroke-dashoffset:0"
       d="M 130.06135,179.89432 462.57669,163.3299"
       id="path3011"
       inkscape:connector-curvature="0"
       transform="translate(95.774185,179.78736)" />
  </g>
</svg>
